<svg width="12" height="12" viewBox="0 0 12 12" fill="none" xmlns="http://www.w3.org/2000/svg">
<path d="M6 0C2.68661 0 0 2.68661 0 6C0 9.31339 2.68661 12 6 12C9.31339 12 12 9.31339 12 6C12 2.68661 9.31339 0 6 0ZM6 10.9821C3.24911 10.9821 1.01786 8.75089 1.01786 6C1.01786 3.24911 3.24911 1.01786 6 1.01786C8.75089 1.01786 10.9821 3.24911 10.9821 6C10.9821 8.75089 8.75089 10.9821 6 10.9821Z" fill="#FE357B"/>
<path d="M5.35718 3.64286C5.35718 3.81335 5.42491 3.97687 5.54547 4.09743C5.66603 4.21799 5.82954 4.28571 6.00003 4.28571C6.17053 4.28571 6.33404 4.21799 6.4546 4.09743C6.57516 3.97687 6.64289 3.81335 6.64289 3.64286C6.64289 3.47236 6.57516 3.30885 6.4546 3.18829C6.33404 3.06773 6.17053 3 6.00003 3C5.82954 3 5.66603 3.06773 5.54547 3.18829C5.42491 3.30885 5.35718 3.47236 5.35718 3.64286ZM6.32146 5.14286H5.67861C5.61968 5.14286 5.57146 5.19107 5.57146 5.25V8.89286C5.57146 8.95179 5.61968 9 5.67861 9H6.32146C6.38039 9 6.42861 8.95179 6.42861 8.89286V5.25C6.42861 5.19107 6.38039 5.14286 6.32146 5.14286Z" fill="#FE357B"/>
</svg>
