<svg width="12" height="13" viewBox="0 0 12 13" fill="none" xmlns="http://www.w3.org/2000/svg">
<path d="M0.387854 4.72554L3.98522 4.17806L5.59334 0.764102C5.63726 0.670629 5.70952 0.594961 5.79878 0.548967C6.02264 0.43324 6.29468 0.529679 6.40661 0.764102L8.01472 4.17806L11.6121 4.72554C11.7113 4.74038 11.8019 4.78934 11.8714 4.86352C11.9553 4.95386 12.0016 5.0754 12 5.20142C11.9984 5.32745 11.9491 5.44766 11.8629 5.53563L9.26013 8.19291L9.87504 11.9452C9.88946 12.0324 9.88024 12.1222 9.84841 12.2043C9.81659 12.2864 9.76345 12.3575 9.695 12.4095C9.62656 12.4616 9.54556 12.4925 9.46118 12.4988C9.3768 12.5051 9.29243 12.4865 9.21762 12.4452L5.99997 10.6736L2.78232 12.4452C2.69448 12.4941 2.59246 12.5104 2.4947 12.4926C2.24817 12.4481 2.0824 12.2033 2.1249 11.9452L2.73981 8.19291L0.137072 5.53563C0.0662298 5.46293 0.019474 5.36798 0.00530529 5.26412C-0.0329494 5.00447 0.139906 4.76412 0.387854 4.72554Z" fill="white"/>
</svg>
